<svg xmlns="http://www.w3.org/2000/svg" viewBox="0 0 512 512" width="512" height="512">
  <rect width="512" height="512" fill="#000000"/>
  <!-- K -->
  <path d="M140.20,-132.00L99.81,-79.59L143.81,0.00L91.61,0.00L67.02,-49.41L56.20,-34.59L56.20,0.00L10.00,0.00L10.00,-132.00L56.20,-132.00L56.20,-82.80L90.61,-132.00L140.20,-132.00Z" fill="#FFFFFF" transform="translate(61.44,344.91) scale(1.347089,1.347089)"/>
  <!-- R -->
  <path d="M81.59,-132.00Q107.41,-132.00,121.20,-120.54Q135.00,-109.08,135.00,-90.16Q135.00,-68.44,121.72,-57.47Q116.75,-53.48,110.22,-50.89L142.41,0.00L92.17,0.00L68.92,-44.00L56.20,-44.00L56.20,0.00L10.00,0.00L10.00,-132.00L81.59,-132.00ZM74.08,-75.00Q81.44,-75.00,85.12,-77.65Q88.80,-80.30,88.80,-87.00Q88.80,-93.50,85.12,-96.25Q81.44,-99.00,74.08,-99.00L56.20,-99.00L56.20,-75.00L74.08,-75.00Z" fill="#A8E10C" transform="translate(257.93,344.91) scale(1.347089,1.347089)"/>
</svg>
