<svg xmlns="http://www.w3.org/2000/svg" viewBox="0 0 360 320" width="360" height="320">
  <!-- Kevin Ryan & Associates — outlined paths -->
  <!-- Font: Work Sans Black 900 / Light 300 -->
  <!-- Green: #A8E10C (Lime) -->

  <!-- KEVIN -->
  <path d="M75.31,-71.00L53.50,-42.81L77.27,0.00L49.08,0.00L35.78,-26.58L29.95,-18.61L29.95,0.00L5.00,0.00L5.00,-71.00L29.95,-71.00L29.95,-44.53L48.53,-71.00L75.31,-71.00ZM82.00,0.00L82.00,-71.00L141.00,-71.00L141.00,-53.00L106.95,-53.00L106.95,-43.72L134.50,-43.72L134.50,-27.00L106.95,-27.00L106.95,-18.00L142.50,-18.00L142.50,0.00L82.00,0.00ZM221.22,-71.00L197.14,0.00L167.22,0.00L143.14,-71.00L169.38,-71.00L179.20,-32.17L182.66,-18.28L185.91,-31.95L195.95,-71.00L221.22,-71.00ZM249.95,-71.00L249.95,0.00L225.00,0.00L225.00,-71.00L249.95,-71.00ZM330.00,-71.00L330.00,0.00L302.50,0.00L285.81,-32.28L282.00,-40.98L282.00,-40.98L282.00,-26.36L282.00,0.00L260.00,0.00L260.00,-71.00L287.50,-71.00L304.20,-38.62L308.00,-30.02L308.00,-30.02L308.00,-44.64L308.00,-71.00L330.00,-71.00Z" fill="#000000" transform="translate(10,110) scale(1.014925,1)"/>

  <!-- RYAN (letter-spaced) -->
  <path d="M43.34,-72.00Q57.17,-72.00,64.56,-65.75Q71.95,-59.50,71.95,-49.16Q71.95,-37.30,64.77,-31.31Q62.09,-29.14,58.56,-27.72L75.94,-0.50L48.83,-0.50L36.61,-24.00L29.95,-24.00L29.95,-0.50L5.00,-0.50L5.00,-72.00L43.34,-72.00ZM39.31,-40.72Q43.14,-40.72,45.07,-42.19Q47.00,-43.66,47.00,-47.36Q47.00,-50.94,45.07,-52.47Q43.14,-54.00,39.31,-54.00L29.95,-54.00L29.95,-40.72L39.31,-40.72ZM162.24,-71.00L137.29,-24.64L137.29,0.00L112.33,0.00L112.33,-24.64L87.38,-71.00L112.44,-71.00L119.94,-54.75L124.97,-41.84L130.01,-54.75L137.51,-71.00L162.24,-71.00ZM250.15,-0.50L224.45,-0.50L221.21,-14.00L201.99,-14.00L198.64,-0.50L173.59,-0.50L196.70,-71.50L226.93,-71.50L250.15,-0.50ZM205.78,-30.00L217.54,-30.00L211.71,-54.44L205.78,-30.00ZM335.00,-71.00L335.00,0.00L307.50,0.00L290.81,-32.28L287.00,-40.98L287.00,-40.98L287.00,-26.36L287.00,0.00L265.00,0.00L265.00,-71.00L292.50,-71.00L309.20,-38.62L313.00,-30.02L313.00,-30.02L313.00,-44.64L313.00,-71.00L335.00,-71.00Z" fill="#A8E10C" transform="translate(10,215)"/>

  <!-- & associates (letter-spaced) -->
  <path d="M9.27,0.00Q7.08,0.00,5.45,-0.70Q3.81,-1.41,2.91,-2.66Q2.00,-3.92,2.00,-5.59Q2.00,-6.81,2.38,-7.80Q2.77,-8.80,3.54,-9.66Q4.31,-10.53,5.50,-11.31Q6.55,-12.03,7.91,-12.69Q6.98,-13.80,6.42,-14.59Q5.64,-15.66,5.32,-16.49Q5.00,-17.33,5.00,-18.28Q5.00,-19.56,5.65,-20.64Q6.30,-21.72,7.55,-22.36Q8.81,-23.00,10.66,-23.00Q12.22,-23.00,13.37,-22.49Q14.52,-21.98,15.16,-21.02Q15.80,-20.06,15.80,-18.75Q15.80,-17.33,15.18,-16.22Q14.56,-15.11,13.30,-14.16Q12.09,-13.28,10.20,-12.31Q11.25,-11.05,12.80,-9.23Q14.94,-6.80,16.38,-5.27Q16.38,-5.23,16.41,-5.23Q17.14,-6.55,17.53,-8.25Q18.00,-10.23,18.00,-12.52L19.80,-12.52Q19.80,-10.27,19.20,-8.02Q18.61,-5.84,17.27,-4.16Q18.00,-3.42,18.62,-2.92Q19.58,-2.12,20.41,-1.82Q21.25,-1.52,22.20,-1.52L21.77,0.00Q20.77,0.00,19.87,-0.34Q18.97,-0.69,17.88,-1.64Q17.23,-2.19,16.44,-3.02Q15.31,-1.78,13.77,-0.98Q11.84,0.00,9.27,0.00ZM8.84,-12.11Q7.33,-11.27,6.30,-10.52Q5.02,-9.61,4.41,-8.55Q3.80,-7.48,3.80,-5.97Q3.80,-4.59,4.55,-3.59Q5.30,-2.59,6.57,-2.05Q7.84,-1.52,9.42,-1.52Q11.59,-1.52,13.14,-2.31Q14.45,-2.98,15.47,-4.06Q15.42,-4.12,15.36,-4.20Q13.88,-5.89,11.70,-8.55Q10.05,-10.62,8.84,-12.11ZM9.33,-12.94Q10.70,-13.72,11.70,-14.42Q12.77,-15.16,13.38,-16.09Q14.00,-17.03,14.00,-18.38Q14.00,-19.83,13.05,-20.66Q12.11,-21.48,10.48,-21.48Q8.72,-21.48,7.76,-20.52Q6.80,-19.55,6.80,-18.06Q6.80,-17.31,6.99,-16.66Q7.19,-16.02,7.80,-15.09Q8.34,-14.25,9.33,-12.94ZM70.66,-11.72Q70.66,-13.98,69.40,-15.23Q68.14,-16.48,65.80,-16.48Q63.75,-16.48,62.27,-15.63Q60.80,-14.78,60.08,-12.80L58.63,-13.70Q59.42,-15.75,61.27,-16.88Q63.11,-18.00,65.85,-18.00Q67.83,-18.00,69.31,-17.32Q70.80,-16.64,71.63,-15.32Q72.45,-14.00,72.45,-12.05L72.45,-3.36Q72.45,-1.52,74.19,-1.52Q74.94,-1.52,75.49,-1.77L75.38,-0.33Q74.77,0.00,73.80,0.00Q72.97,0.00,72.24,-0.32Q71.52,-0.64,71.10,-1.38Q70.69,-2.03,70.63,-3.05Q70.27,-2.41,69.72,-1.92Q68.61,-0.92,67.17,-0.46Q65.74,0.00,64.30,0.00Q62.61,0.00,61.28,-0.52Q59.95,-1.05,59.20,-2.03Q58.45,-3.02,58.45,-4.47Q58.45,-6.39,59.81,-7.59Q61.16,-8.78,63.58,-9.23L70.66,-10.58L70.66,-11.72ZM70.66,-9.12L64.47,-7.95Q62.35,-7.53,61.30,-6.73Q60.25,-5.94,60.25,-4.59Q60.25,-3.14,61.37,-2.33Q62.49,-1.52,64.53,-1.52Q65.58,-1.52,66.66,-1.79Q67.74,-2.06,68.66,-2.67Q69.58,-3.28,70.12,-4.20Q70.66,-5.11,70.66,-6.44L70.66,-9.12ZM97.13,0.00Q94.40,0.00,92.29,-1.07Q90.18,-2.14,89.31,-4.16L90.87,-5.16Q91.51,-3.42,93.19,-2.47Q94.87,-1.52,97.29,-1.52Q99.68,-1.52,101.03,-2.41Q102.38,-3.31,102.38,-4.80Q102.38,-5.81,101.71,-6.55Q101.04,-7.30,99.20,-7.69L94.98,-8.53Q92.42,-9.06,91.30,-10.23Q90.18,-11.39,90.18,-13.05Q90.18,-14.42,91.04,-15.54Q91.90,-16.66,93.44,-17.33Q94.98,-18.00,97.04,-18.00Q99.74,-18.00,101.52,-16.98Q103.29,-15.97,104.01,-13.92L102.49,-12.98Q101.96,-14.81,100.49,-15.65Q99.03,-16.48,97.04,-16.48Q95.53,-16.48,94.38,-16.05Q93.24,-15.61,92.61,-14.87Q91.98,-14.12,91.98,-13.16Q91.98,-12.16,92.70,-11.34Q93.42,-10.53,95.28,-10.14L99.59,-9.25Q102.17,-8.73,103.17,-7.68Q104.18,-6.62,104.18,-5.06Q104.18,-3.53,103.31,-2.37Q102.45,-1.20,100.85,-0.60Q99.26,0.00,97.13,0.00ZM126.86,0.00Q124.13,0.00,122.02,-1.07Q119.91,-2.14,119.03,-4.16L120.60,-5.16Q121.24,-3.42,122.92,-2.47Q124.60,-1.52,127.02,-1.52Q129.41,-1.52,130.76,-2.41Q132.11,-3.31,132.11,-4.80Q132.11,-5.81,131.44,-6.55Q130.77,-7.30,128.92,-7.69L124.71,-8.53Q122.14,-9.06,121.03,-10.23Q119.91,-11.39,119.91,-13.05Q119.91,-14.42,120.77,-15.54Q121.63,-16.66,123.17,-17.33Q124.71,-18.00,126.77,-18.00Q129.47,-18.00,131.25,-16.98Q133.02,-15.97,133.74,-13.92L132.22,-12.98Q131.69,-14.81,130.22,-15.65Q128.75,-16.48,126.77,-16.48Q125.25,-16.48,124.11,-16.05Q122.97,-15.61,122.34,-14.87Q121.71,-14.12,121.71,-13.16Q121.71,-12.16,122.42,-11.34Q123.14,-10.53,125.00,-10.14L129.32,-9.25Q131.89,-8.73,132.90,-7.68Q133.91,-6.62,133.91,-5.06Q133.91,-3.53,133.04,-2.37Q132.17,-1.20,130.58,-0.60Q128.99,0.00,126.86,0.00ZM158.14,-18.00Q160.64,-18.00,162.55,-16.93Q164.46,-15.86,165.55,-13.84Q166.64,-11.81,166.64,-9.00Q166.64,-6.20,165.55,-4.17Q164.46,-2.14,162.55,-1.07Q160.64,0.00,158.14,0.00Q155.64,0.00,153.72,-1.07Q151.81,-2.14,150.72,-4.17Q149.64,-6.20,149.64,-9.00Q149.64,-11.81,150.72,-13.84Q151.81,-15.86,153.72,-16.93Q155.64,-18.00,158.14,-18.00ZM158.14,-16.48Q156.11,-16.48,154.61,-15.59Q153.11,-14.69,152.27,-13.02Q151.43,-11.34,151.43,-9.00Q151.43,-6.67,152.27,-4.98Q153.11,-3.30,154.61,-2.41Q156.11,-1.52,158.14,-1.52Q160.17,-1.52,161.67,-2.41Q163.17,-3.30,164.00,-4.98Q164.84,-6.67,164.84,-9.00Q164.84,-11.34,164.00,-13.02Q163.17,-14.69,161.67,-15.59Q160.17,-16.48,158.14,-16.48ZM190.85,-18.00Q192.69,-18.00,194.13,-17.45Q195.57,-16.89,196.57,-15.85Q197.58,-14.81,198.13,-13.33L196.44,-12.56Q195.86,-14.44,194.44,-15.46Q193.02,-16.48,190.82,-16.48Q188.83,-16.48,187.32,-15.59Q185.82,-14.70,184.99,-13.02Q184.16,-11.34,184.16,-9.00Q184.16,-6.67,184.99,-4.98Q185.82,-3.28,187.29,-2.40Q188.77,-1.52,190.79,-1.52Q192.30,-1.52,193.54,-2.00Q194.79,-2.48,195.59,-3.42Q196.39,-4.36,196.64,-5.64L198.30,-5.08Q197.83,-3.50,196.78,-2.35Q195.72,-1.20,194.21,-0.60Q192.69,0.00,190.82,0.00Q188.36,0.00,186.44,-1.07Q184.52,-2.14,183.44,-4.17Q182.36,-6.20,182.36,-9.00Q182.36,-11.81,183.46,-13.84Q184.55,-15.86,186.48,-16.93Q188.41,-18.00,190.85,-18.00ZM216.59,-20.05Q215.92,-20.05,215.50,-20.45Q215.09,-20.86,215.09,-21.52Q215.09,-22.19,215.50,-22.59Q215.92,-23.00,216.59,-23.00Q217.26,-23.00,217.68,-22.59Q218.09,-22.19,218.09,-21.52Q218.09,-20.86,217.68,-20.45Q217.26,-20.05,216.59,-20.05ZM217.89,-18.00L217.89,0.00L216.09,0.00L216.09,-18.00L217.89,-18.00ZM247.02,-11.72Q247.02,-13.98,245.76,-15.23Q244.51,-16.48,242.16,-16.48Q240.12,-16.48,238.64,-15.63Q237.16,-14.78,236.44,-12.80L234.99,-13.70Q235.79,-15.75,237.63,-16.88Q239.47,-18.00,242.21,-18.00Q244.19,-18.00,245.68,-17.32Q247.16,-16.64,247.99,-15.32Q248.82,-14.00,248.82,-12.05L248.82,-3.36Q248.82,-1.52,250.55,-1.52Q251.30,-1.52,251.85,-1.77L251.74,-0.33Q251.13,0.00,250.16,0.00Q249.33,0.00,248.61,-0.32Q247.88,-0.64,247.46,-1.38Q247.05,-2.03,246.99,-3.05Q246.63,-2.41,246.08,-1.92Q244.97,-0.92,243.54,-0.46Q242.10,0.00,240.66,0.00Q238.97,0.00,237.65,-0.52Q236.32,-1.05,235.57,-2.03Q234.82,-3.02,234.82,-4.47Q234.82,-6.39,236.17,-7.59Q237.52,-8.78,239.94,-9.23L247.02,-10.58L247.02,-11.72ZM247.02,-9.12L240.83,-7.95Q238.71,-7.53,237.66,-6.73Q236.62,-5.94,236.62,-4.59Q236.62,-3.14,237.73,-2.33Q238.85,-1.52,240.90,-1.52Q241.94,-1.52,243.02,-1.79Q244.10,-2.06,245.02,-2.67Q245.94,-3.28,246.48,-4.20Q247.02,-5.11,247.02,-6.44L247.02,-9.12ZM270.55,-22.91L270.55,-18.00L277.55,-18.00L277.55,-16.48L270.55,-16.48L270.55,-4.94Q270.55,-3.27,271.39,-2.39Q272.23,-1.52,273.84,-1.52Q274.90,-1.52,275.70,-1.85Q276.50,-2.19,277.14,-2.83L277.84,-1.39Q277.14,-0.77,276.06,-0.38Q274.98,0.00,273.64,0.00Q272.19,0.00,271.08,-0.52Q269.97,-1.03,269.36,-2.09Q268.75,-3.14,268.75,-4.77L268.75,-16.48L265.55,-16.48L265.55,-18.00L268.75,-18.00L268.75,-22.42L270.55,-22.91ZM300.79,0.00Q298.32,0.00,296.38,-1.07Q294.44,-2.14,293.36,-4.17Q292.27,-6.20,292.27,-9.01Q292.27,-11.81,293.36,-13.84Q294.44,-15.86,296.32,-16.93Q298.19,-18.00,300.55,-18.00Q302.99,-18.00,304.70,-16.98Q306.41,-15.95,307.34,-14.12Q308.27,-12.28,308.27,-9.89Q308.27,-9.58,308.27,-9.29Q308.27,-9.00,308.23,-9.00L294.07,-9.00Q294.07,-6.78,294.87,-5.16Q295.68,-3.36,297.21,-2.44Q298.74,-1.52,300.74,-1.52Q302.80,-1.52,304.30,-2.41Q305.79,-3.31,306.62,-4.88L308.05,-4.06Q307.40,-2.80,306.33,-1.90Q305.26,-1.00,303.86,-0.50Q302.46,0.00,300.79,0.00ZM294.10,-10.52L306.48,-10.52Q306.48,-13.19,304.96,-14.80Q303.37,-16.48,300.55,-16.48Q298.63,-16.48,297.16,-15.64Q295.69,-14.80,294.87,-13.22Q294.24,-12.03,294.10,-10.52ZM330.95,0.00Q328.22,0.00,326.11,-1.07Q324.00,-2.14,323.12,-4.16L324.69,-5.16Q325.33,-3.42,327.01,-2.47Q328.69,-1.52,331.11,-1.52Q333.50,-1.52,334.85,-2.41Q336.20,-3.31,336.20,-4.80Q336.20,-5.81,335.53,-6.55Q334.86,-7.30,333.02,-7.69L328.80,-8.53Q326.23,-9.06,325.12,-10.23Q324.00,-11.39,324.00,-13.05Q324.00,-14.42,324.86,-15.54Q325.72,-16.66,327.26,-17.33Q328.80,-18.00,330.86,-18.00Q333.56,-18.00,335.34,-16.98Q337.11,-15.97,337.83,-13.92L336.31,-12.98Q335.78,-14.81,334.31,-15.65Q332.84,-16.48,330.86,-16.48Q329.34,-16.48,328.20,-16.05Q327.06,-15.61,326.43,-14.87Q325.80,-14.12,325.80,-13.16Q325.80,-12.16,326.52,-11.34Q327.23,-10.53,329.09,-10.14L333.41,-9.25Q335.98,-8.73,336.99,-7.68Q338.00,-6.62,338.00,-5.06Q338.00,-3.53,337.13,-2.37Q336.27,-1.20,334.67,-0.60Q333.08,0.00,330.95,0.00Z" fill="#000000" transform="translate(10,268)"/>

</svg>
